<svg aria-hidden="true" style="position: absolute; width: 0; height: 0; overflow: hidden;" version="1.1" xmlns="http://www.w3.org/2000/svg" xmlns:xlink="http://www.w3.org/1999/xlink">
<defs>
<symbol id="facebook" viewBox="0 0 32 32">
<path d="M28 0.947h-24c-1.841 0-3.273 1.5-3.273 3.273v24c0 1.841 1.432 3.273 3.273 3.273h9.341v-10.364h-4.295v-4.909h4.295v-3.682c0-4.227 2.523-6.614 6.341-6.614 1.909 0 3.818 0.341 3.818 0.341v4.159h-2.114c-2.114 0-2.796 1.295-2.796 2.659v3.136h4.705l-0.75 4.909h-3.955v10.364h9.409c1.773 0 3.273-1.432 3.273-3.273v-24c0-1.773-1.5-3.273-3.273-3.273z"></path>
</symbol>
<symbol id="linkedin" viewBox="0 0 32 32">
<path d="M29.091 0.947h-26.25c-1.159 0-2.114 1.023-2.114 2.25v26.114c0 1.227 0.955 2.182 2.114 2.182h26.25c1.159 0 2.182-0.955 2.182-2.182v-26.114c0-1.227-1.023-2.25-2.182-2.25zM9.932 27.129h-4.5v-14.523h4.5v14.523zM7.682 10.561c-1.5 0-2.659-1.159-2.659-2.591s1.159-2.659 2.659-2.659c1.432 0 2.591 1.227 2.591 2.659s-1.159 2.591-2.591 2.591zM26.909 27.129h-4.568v-7.091c0-1.636 0-3.818-2.318-3.818-2.386 0-2.727 1.841-2.727 3.75v7.159h-4.5v-14.523h4.295v1.977h0.068c0.614-1.159 2.114-2.386 4.295-2.386 4.568 0 5.455 3.068 5.455 6.955v7.977z"></path>
</symbol>
<symbol id="instagram" viewBox="0 0 32 32">
<path d="M16 8.379c-4.364 0-7.841 3.545-7.841 7.841 0 4.364 3.477 7.841 7.841 7.841 4.295 0 7.841-3.477 7.841-7.841 0-4.296-3.545-7.841-7.841-7.841zM16 21.334c-2.795 0-5.114-2.25-5.114-5.114 0-2.796 2.25-5.046 5.114-5.046 2.796 0 5.046 2.25 5.046 5.046 0 2.864-2.25 5.114-5.046 5.114zM25.955 8.107c0 1.023-0.818 1.841-1.841 1.841s-1.841-0.818-1.841-1.841c0-1.023 0.818-1.841 1.841-1.841s1.841 0.818 1.841 1.841zM31.136 9.947c-0.136-2.455-0.682-4.636-2.454-6.409s-3.955-2.318-6.409-2.455c-2.523-0.136-10.091-0.136-12.614 0-2.455 0.136-4.568 0.682-6.409 2.455-1.773 1.773-2.318 3.955-2.455 6.409-0.136 2.523-0.136 10.091 0 12.614 0.136 2.455 0.682 4.568 2.455 6.409 1.841 1.773 3.955 2.318 6.409 2.455 2.523 0.136 10.091 0.136 12.614 0 2.455-0.136 4.636-0.682 6.409-2.455 1.773-1.841 2.318-3.955 2.454-6.409 0.136-2.523 0.136-10.091 0-12.614zM27.864 25.22c-0.477 1.364-1.568 2.386-2.864 2.932-2.046 0.818-6.818 0.614-9 0.614-2.25 0-7.023 0.204-9-0.614-1.364-0.545-2.386-1.568-2.932-2.932-0.818-1.977-0.614-6.75-0.614-9 0-2.182-0.205-6.955 0.614-9 0.545-1.295 1.568-2.318 2.932-2.864 1.977-0.818 6.75-0.614 9-0.614 2.182 0 6.954-0.205 9 0.614 1.295 0.477 2.318 1.568 2.864 2.864 0.818 2.045 0.614 6.818 0.614 9 0 2.25 0.205 7.023-0.614 9z"></path>
</symbol>
<symbol id="arrow" viewBox="0 0 43 32">
<path d="M37.293 15.321l-15.235-12.773 2.080-2.427 18.262 15.2-18.262 15.2-2.080-2.427 15.235-12.773z"></path>
<path d="M0.8 16.905h31.508v-3.216h-31.508v3.216z"></path>
</symbol>
</defs>
</svg>
