<svg aria-hidden="true" style="position: absolute; width: 0; height: 0; overflow: hidden;" version="1.1" xmlns="http://www.w3.org/2000/svg" xmlns:xlink="http://www.w3.org/1999/xlink">
<defs>
<symbol id="facebook" viewBox="0 0 32 32">
<path d="M28 0.947h-24c-1.841 0-3.273 1.5-3.273 3.273v24c0 1.841 1.432 3.273 3.273 3.273h9.341v-10.364h-4.295v-4.909h4.295v-3.682c0-4.227 2.523-6.614 6.341-6.614 1.909 0 3.818 0.341 3.818 0.341v4.159h-2.114c-2.114 0-2.796 1.295-2.796 2.659v3.136h4.705l-0.75 4.909h-3.955v10.364h9.409c1.773 0 3.273-1.432 3.273-3.273v-24c0-1.773-1.5-3.273-3.273-3.273z"></path>
</symbol>
<symbol id="linkedin" viewBox="0 0 32 32">
<path d="M29.091 0.947h-26.25c-1.159 0-2.114 1.023-2.114 2.25v26.114c0 1.227 0.955 2.182 2.114 2.182h26.25c1.159 0 2.182-0.955 2.182-2.182v-26.114c0-1.227-1.023-2.25-2.182-2.25zM9.932 27.129h-4.5v-14.523h4.5v14.523zM7.682 10.561c-1.5 0-2.659-1.159-2.659-2.591s1.159-2.659 2.659-2.659c1.432 0 2.591 1.227 2.591 2.659s-1.159 2.591-2.591 2.591zM26.909 27.129h-4.568v-7.091c0-1.636 0-3.818-2.318-3.818-2.386 0-2.727 1.841-2.727 3.75v7.159h-4.5v-14.523h4.295v1.977h0.068c0.614-1.159 2.114-2.386 4.295-2.386 4.568 0 5.455 3.068 5.455 6.955v7.977z"></path>
</symbol>
<symbol id="instagram" viewBox="0 0 32 32">
<path d="M16 8.379c-4.364 0-7.841 3.545-7.841 7.841 0 4.364 3.477 7.841 7.841 7.841 4.295 0 7.841-3.477 7.841-7.841 0-4.296-3.545-7.841-7.841-7.841zM16 21.334c-2.795 0-5.114-2.25-5.114-5.114 0-2.796 2.25-5.046 5.114-5.046 2.796 0 5.046 2.25 5.046 5.046 0 2.864-2.25 5.114-5.046 5.114zM25.955 8.107c0 1.023-0.818 1.841-1.841 1.841s-1.841-0.818-1.841-1.841c0-1.023 0.818-1.841 1.841-1.841s1.841 0.818 1.841 1.841zM31.136 9.947c-0.136-2.455-0.682-4.636-2.454-6.409s-3.955-2.318-6.409-2.455c-2.523-0.136-10.091-0.136-12.614 0-2.455 0.136-4.568 0.682-6.409 2.455-1.773 1.773-2.318 3.955-2.455 6.409-0.136 2.523-0.136 10.091 0 12.614 0.136 2.455 0.682 4.568 2.455 6.409 1.841 1.773 3.955 2.318 6.409 2.455 2.523 0.136 10.091 0.136 12.614 0 2.455-0.136 4.636-0.682 6.409-2.455 1.773-1.841 2.318-3.955 2.454-6.409 0.136-2.523 0.136-10.091 0-12.614zM27.864 25.22c-0.477 1.364-1.568 2.386-2.864 2.932-2.046 0.818-6.818 0.614-9 0.614-2.25 0-7.023 0.204-9-0.614-1.364-0.545-2.386-1.568-2.932-2.932-0.818-1.977-0.614-6.75-0.614-9 0-2.182-0.205-6.955 0.614-9 0.545-1.295 1.568-2.318 2.932-2.864 1.977-0.818 6.75-0.614 9-0.614 2.182 0 6.954-0.205 9 0.614 1.295 0.477 2.318 1.568 2.864 2.864 0.818 2.045 0.614 6.818 0.614 9 0 2.25 0.205 7.023-0.614 9z"></path>
</symbol>
<symbol id="arrow" viewBox="0 0 43 32">
<path d="M37.293 15.321l-15.235-12.773 2.080-2.427 18.262 15.2-18.262 15.2-2.080-2.427 15.235-12.773z"></path>
<path d="M0.8 16.905h31.508v-3.216h-31.508v3.216z"></path>
</symbol>
<symbol id="options1" viewBox="0 0 33 32">
<path d="M31.139 22.839h-21.588v-21.588h2.257v18.705l0.626 0.626h18.705v2.257zM23.225 30.753h-2.257v-6.662h2.257v6.662zM1.642 11.422v-2.257h6.662v2.257h-6.662zM22.516 9.165l-2.257 2.257h-7.2v-2.257h9.457zM13.063 12.673h5.949l-5.949 5.949v-5.949zM14.123 19.331l5.602-5.602v5.602h-5.602zM23.23 19.331h-2.257v-6.854l2.257-2.257v9.111zM24.481 19.331v-10.362l2.478-2.478-0.884-0.884-2.307 2.307h-10.704v-7.288l-0.626-0.626h-3.508l-0.626 0.626v7.284h-7.288l-0.626 0.626v3.508l0.626 0.626h7.288v10.792l0.626 0.626h10.792v7.288l0.626 0.626h3.508l0.626-0.626v-7.284h7.288l0.626-0.626v-3.508l-0.626-0.626h-7.288z"></path>
</symbol>
<symbol id="options2" viewBox="0 0 40 32">
<path d="M20.26 0c0.208 0 0.4 0.075 0.588 0.205l18.776 15c0.435 0.35 0.494 1 0.168 1.42-0.316 0.415-0.998 0.485-1.403 0.155l-18.159-14.5-18.159 14.5c-0.41 0.33-1.067 0.26-1.388-0.155-0.321-0.41-0.287-1.095 0.153-1.42l7.041-5.625v-8.58c0-0.555 0.445-1 0.988-1h3.953c0.548 0 0.988 0.445 0.988 1v3.845l5.806-4.64c0.222-0.15 0.445-0.205 0.647-0.205zM11.83 2h-1.976v6l1.976-1.58v-4.42zM32.583 13.455l1.976 1.58v15.97c0 0.555-0.44 1-0.988 1h-9.388c-0.549 0-0.988-0.445-0.988-1v-6c0-1.68-1.304-3-2.965-3s-2.965 1.32-2.965 3v6c0 0.555-0.44 1-0.988 1h-9.388c-0.548 0-0.988-0.445-0.988-1v-15.975l1.976-1.58v16.55h7.412v-5c0-2.75 2.224-5 4.941-5s4.941 2.25 4.941 5v5h7.412v-16.545z"></path>
</symbol>
<symbol id="options3" viewBox="0 0 40 32">
<path d="M20.26 0c0.208 0 0.4 0.075 0.588 0.205l18.776 15c0.435 0.35 0.494 1 0.168 1.42-0.316 0.415-0.998 0.485-1.403 0.155l-18.159-14.5-18.159 14.5c-0.41 0.33-1.067 0.26-1.388-0.155-0.321-0.41-0.287-1.095 0.153-1.42l7.041-5.625v-8.58c0-0.555 0.445-1 0.988-1h3.953c0.548 0 0.988 0.445 0.988 1v3.845l5.806-4.64c0.222-0.15 0.445-0.205 0.647-0.205zM11.83 2h-1.976v6l1.976-1.58v-4.42zM32.583 13.455l1.976 1.58v15.97c0 0.555-0.44 1-0.988 1h-9.388c-0.549 0-0.988-0.445-0.988-1v-6c0-1.68-1.304-3-2.965-3s-2.965 1.32-2.965 3v6c0 0.555-0.44 1-0.988 1h-9.388c-0.548 0-0.988-0.445-0.988-1v-15.975l1.976-1.58v16.55h7.412v-5c0-2.75 2.224-5 4.941-5s4.941 2.25 4.941 5v5h7.412v-16.545z"></path>
</symbol>
<symbol id="options4" viewBox="0 0 33 32">
<path d="M31.659 0h-30.476c-0.423 0-0.762 0.339-0.762 0.762v30.476c0 0.423 0.339 0.762 0.762 0.762h30.476c0.423 0 0.762-0.339 0.762-0.762v-30.476c0-0.423-0.339-0.762-0.762-0.762zM30.897 22.857h-6.095v-6.095h6.095v6.095zM17.183 16.762h6.095v13.714h-6.095v-13.714zM30.897 15.238h-13.714v-13.714h13.714v13.714zM1.945 30.476v-28.952h13.714v28.952h-13.714zM30.897 30.476h-6.095v-6.095h6.095v6.095z"></path>
<path d="M4.992 8.762c-0.423 0-0.762 0.339-0.762 0.762v17.524c0 0.423 0.339 0.762 0.762 0.762s0.762-0.339 0.762-0.762v-17.524c0-0.423-0.339-0.762-0.762-0.762z"></path>
<path d="M4.992 4.19c-0.423 0-0.762 0.339-0.762 0.762v1.524c0 0.423 0.339 0.762 0.762 0.762s0.762-0.339 0.762-0.762v-1.524c0-0.423-0.339-0.762-0.762-0.762z"></path>
</symbol>
<symbol id="options5" viewBox="0 0 37 32">
<path d="M15.197 22.99h6.689c0.392 0 0.711-0.316 0.711-0.703v-2.96c0-0.387-0.319-0.703-0.711-0.703h-6.689c-0.392 0-0.711 0.316-0.711 0.703v2.96c0 0.387 0.319 0.703 0.711 0.703zM15.908 20.030h5.272v1.558h-5.272v-1.558z"></path>
<path d="M15.201 17.274h6.689c0.392 0 0.711-0.316 0.711-0.703v-2.964c0-0.387-0.319-0.703-0.711-0.703h-6.689c-0.392 0-0.711 0.316-0.711 0.703v2.964c0 0.387 0.315 0.703 0.711 0.703zM15.908 14.311h5.272v1.558h-5.272v-1.558z"></path>
<path d="M15.201 11.551h6.689c0.392 0 0.711-0.316 0.711-0.703v-2.963c0-0.387-0.319-0.703-0.711-0.703h-6.689c-0.392 0-0.711 0.316-0.711 0.703v2.963c0 0.387 0.315 0.703 0.711 0.703zM15.908 8.591h5.272v1.558h-5.272v-1.558z"></path>
<path d="M36.016 11.263c0.392 0 0.711-0.316 0.711-0.703v-3.159c0-0.387-0.319-0.703-0.711-0.703h-9.109v-2.133h0.78c0.392 0 0.711-0.316 0.711-0.703v-3.159c0-0.387-0.319-0.703-0.711-0.703h-18.283c-0.392 0-0.711 0.316-0.711 0.703v3.159c0 0.387 0.319 0.703 0.711 0.703h0.78v2.133h-9.109c-0.392 0-0.711 0.316-0.711 0.703v3.159c0 0.387 0.319 0.703 0.711 0.703h0.549v19.331h-0.549c-0.392 0-0.711 0.316-0.711 0.703s0.319 0.703 0.711 0.703h34.942c0.392 0 0.711-0.316 0.711-0.703s-0.319-0.703-0.711-0.703h-0.549v-19.331h0.549zM10.115 3.159v-1.753h16.865v1.753h-16.865zM1.786 8.1h8.394v1.757h-8.394v-1.757zM10.184 30.594h-4.015v-6.271h4.011v6.271h0.004zM10.184 13.040h-3.304c-0.392 0-0.711 0.316-0.711 0.703v6.271c0 0.387 0.319 0.703 0.711 0.703h3.304v2.201h-4.726c-0.392 0-0.711 0.316-0.711 0.703v6.974h-1.701v-19.331h7.138v1.777zM10.184 14.446v4.865h-2.593v-4.865h2.593zM20.117 30.598h-3.139v-4.865h3.139v4.865zM25.493 30.598h-3.955v-4.869c0.368-0.028 0.662-0.331 0.662-0.699s-0.319-0.703-0.711-0.703h-5.882c-0.392 0-0.711 0.316-0.711 0.703s0.291 0.675 0.663 0.699v4.869h-3.955v-26.033h13.884v26.029l0.004 0.004zM30.927 30.598h-4.011v-6.271h4.011v6.271zM34.049 30.598h-1.701v-6.974c0-0.387-0.319-0.703-0.711-0.703h-4.722v-2.201h3.304c0.392 0 0.711-0.316 0.711-0.703v-6.271c0-0.387-0.319-0.703-0.711-0.703h-3.304v-1.777h7.138v19.331h-0.004zM26.911 19.315v-4.865h2.593v4.865h-2.593zM35.309 9.861h-8.398v-1.757h8.398v1.757z"></path>
</symbol>
<symbol id="options6" viewBox="0 0 25 32">
<path d="M24.4 12.26c0-6.762-5.385-12.26-11.998-12.26s-12.002 5.499-12.002 12.26c0 6.762 10.963 18.956 11.432 19.481 0.144 0.168 0.349 0.258 0.566 0.258s0.421-0.094 0.57-0.258c0.466-0.525 11.432-12.916 11.432-19.481zM1.937 12.26c0-5.892 4.695-10.686 10.461-10.686s10.461 4.798 10.461 10.69c0 5.167-8.202 15.122-10.461 17.767-2.259-2.645-10.461-12.605-10.461-17.767v-0.004z"></path>
<path d="M12.398 5.925c-3.294 0-5.979 2.739-5.979 6.11s2.68 6.11 5.979 6.11c3.294 0 5.979-2.739 5.979-6.11s-2.68-6.11-5.979-6.11zM12.398 16.57c-2.448 0-4.438-2.034-4.438-4.539s1.99-4.539 4.438-4.539c2.448 0 4.442 2.034 4.442 4.539s-1.99 4.539-4.442 4.539z"></path>
</symbol>
</defs>
</svg>
